<svg width="210" height="48" viewBox="0 0 210 48" fill="none" xmlns="http://www.w3.org/2000/svg">
<path d="M7.664 30.256C8.56 31.8773 9.56267 33.2853 10.672 34.48C11.824 35.6747 13.0613 36.592 14.384 37.232C15.7493 37.872 17.1787 38.192 18.672 38.192C20.2507 38.192 21.552 37.808 22.576 37.04C23.6 36.2293 24.112 35.1413 24.112 33.776C24.112 32.624 23.8133 31.7067 23.216 31.024C22.6187 30.2987 21.6587 29.616 20.336 28.976C19.0133 28.336 17.264 27.6107 15.088 26.8C14.0213 26.416 12.784 25.8827 11.376 25.2C10.0107 24.5173 8.70933 23.6427 7.472 22.576C6.23467 21.4667 5.21067 20.144 4.4 18.608C3.58933 17.0293 3.184 15.1307 3.184 12.912C3.184 10.2667 3.86667 7.984 5.232 6.064C6.64 4.144 8.51733 2.69333 10.864 1.712C13.2533 0.687998 15.8987 0.175999 18.8 0.175999C21.7867 0.175999 24.368 0.666665 26.544 1.648C28.7627 2.62933 30.5973 3.86666 32.048 5.36C33.4987 6.85333 34.608 8.368 35.376 9.904L27.12 14.512C26.48 13.4453 25.7333 12.528 24.88 11.76C24.0693 10.9493 23.152 10.3307 22.128 9.904C21.1467 9.43466 20.08 9.2 18.928 9.2C17.392 9.2 16.2187 9.54133 15.408 10.224C14.5973 10.864 14.192 11.6747 14.192 12.656C14.192 13.68 14.576 14.576 15.344 15.344C16.1547 16.112 17.2853 16.816 18.736 17.456C20.2293 18.096 22.0213 18.7787 24.112 19.504C25.6907 20.1013 27.1627 20.8053 28.528 21.616C29.8933 22.384 31.088 23.3227 32.112 24.432C33.1787 25.5413 34.0107 26.8213 34.608 28.272C35.2053 29.7227 35.504 31.3867 35.504 33.264C35.504 35.5253 35.0347 37.552 34.096 39.344C33.2 41.0933 31.9627 42.5653 30.384 43.76C28.848 44.9547 27.0773 45.8507 25.072 46.448C23.1093 47.088 21.0827 47.408 18.992 47.408C16.0907 47.408 13.3813 46.896 10.864 45.872C8.38933 44.8053 6.23467 43.376 4.4 41.584C2.56533 39.792 1.136 37.8293 0.112 35.696L7.664 30.256ZM41.2 5.488C41.2 3.952 41.7547 2.71466 42.864 1.776C43.9733 0.794664 45.296 0.303997 46.832 0.303997C48.4107 0.303997 49.7333 0.794664 50.8 1.776C51.9093 2.71466 52.464 3.952 52.464 5.488C52.464 7.024 51.9093 8.28267 50.8 9.264C49.7333 10.2453 48.4107 10.736 46.832 10.736C45.296 10.736 43.9733 10.2453 42.864 9.264C41.7547 8.28267 41.2 7.024 41.2 5.488ZM42.16 16.56H51.504V46H42.16V16.56ZM60.4235 1.2H71.5595V46H60.4235V1.2ZM76.4235 46H67.5915V36.4H76.0395C77.7462 36.4 79.3888 36.1867 80.9675 35.76C82.5888 35.3333 83.9968 34.6293 85.1915 33.648C86.4288 32.6667 87.4102 31.3653 88.1355 29.744C88.8608 28.08 89.2235 26.032 89.2235 23.6C89.2235 21.168 88.8608 19.1413 88.1355 17.52C87.4102 15.856 86.4288 14.5333 85.1915 13.552C83.9968 12.5707 82.5888 11.8667 80.9675 11.44C79.3888 11.0133 77.7462 10.8 76.0395 10.8H67.5915V1.2H76.4235C81.3302 1.2 85.5755 2.11733 89.1595 3.952C92.7435 5.78667 95.5168 8.368 97.4795 11.696C99.4422 15.024 100.424 18.992 100.424 23.6C100.424 28.1653 99.4422 32.1333 97.4795 35.504C95.5168 38.832 92.7435 41.4133 89.1595 43.248C85.5755 45.0827 81.3302 46 76.4235 46ZM113.889 36.784C113.889 37.552 114.081 38.2133 114.465 38.768C114.849 39.28 115.361 39.6853 116.001 39.984C116.641 40.24 117.345 40.368 118.113 40.368C119.222 40.368 120.246 40.1333 121.185 39.664C122.124 39.1947 122.892 38.4907 123.489 37.552C124.086 36.6133 124.385 35.4613 124.385 34.096L125.409 37.936C125.409 39.8133 124.897 41.4133 123.873 42.736C122.849 44.016 121.526 44.9973 119.905 45.68C118.284 46.32 116.534 46.64 114.657 46.64C112.78 46.64 111.03 46.2987 109.409 45.616C107.83 44.8907 106.55 43.824 105.569 42.416C104.63 41.008 104.161 39.3013 104.161 37.296C104.161 34.48 105.164 32.2613 107.169 30.64C109.174 28.976 112.012 28.144 115.681 28.144C117.473 28.144 119.073 28.3147 120.481 28.656C121.932 28.9973 123.169 29.424 124.193 29.936C125.217 30.448 125.985 30.9813 126.497 31.536V35.824C125.473 35.056 124.278 34.48 122.913 34.096C121.59 33.6693 120.182 33.456 118.689 33.456C117.537 33.456 116.62 33.584 115.937 33.84C115.254 34.096 114.742 34.48 114.401 34.992C114.06 35.4613 113.889 36.0587 113.889 36.784ZM109.601 25.584L106.337 19.12C108.001 18.3093 110.006 17.5413 112.353 16.816C114.7 16.0907 117.26 15.728 120.033 15.728C122.636 15.728 124.961 16.112 127.009 16.88C129.057 17.6053 130.678 18.672 131.873 20.08C133.068 21.488 133.665 23.216 133.665 25.264V46H124.385V27.44C124.385 26.7147 124.257 26.096 124.001 25.584C123.788 25.0293 123.446 24.56 122.977 24.176C122.508 23.792 121.91 23.5147 121.185 23.344C120.502 23.1733 119.713 23.088 118.817 23.088C117.494 23.088 116.193 23.2373 114.913 23.536C113.676 23.8347 112.588 24.1973 111.649 24.624C110.71 25.008 110.028 25.328 109.601 25.584ZM153.061 25.712H164.261L178.277 46H165.605L153.061 25.712ZM141.861 1.2H152.677V46H141.861V1.2ZM148.645 10.352V1.2H158.181C162.021 1.2 165.221 1.81866 167.781 3.056C170.341 4.29333 172.282 6.02133 173.605 8.24C174.928 10.416 175.589 12.9547 175.589 15.856C175.589 18.7147 174.928 21.2533 173.605 23.472C172.282 25.648 170.341 27.3547 167.781 28.592C165.221 29.8293 162.021 30.448 158.181 30.448H148.645V22.064H157.413C158.864 22.064 160.101 21.8507 161.125 21.424C162.192 20.9547 163.002 20.2933 163.557 19.44C164.112 18.544 164.389 17.4773 164.389 16.24C164.389 15.0027 164.112 13.9573 163.557 13.104C163.002 12.208 162.192 11.5253 161.125 11.056C160.101 10.5867 158.864 10.352 157.413 10.352H148.645ZM189.827 36.784C189.827 37.552 190.019 38.2133 190.403 38.768C190.787 39.28 191.299 39.6853 191.939 39.984C192.579 40.24 193.283 40.368 194.051 40.368C195.16 40.368 196.184 40.1333 197.123 39.664C198.061 39.1947 198.829 38.4907 199.427 37.552C200.024 36.6133 200.323 35.4613 200.323 34.096L201.347 37.936C201.347 39.8133 200.835 41.4133 199.811 42.736C198.787 44.016 197.464 44.9973 195.843 45.68C194.221 46.32 192.472 46.64 190.595 46.64C188.717 46.64 186.968 46.2987 185.347 45.616C183.768 44.8907 182.488 43.824 181.507 42.416C180.568 41.008 180.099 39.3013 180.099 37.296C180.099 34.48 181.101 32.2613 183.107 30.64C185.112 28.976 187.949 28.144 191.619 28.144C193.411 28.144 195.011 28.3147 196.419 28.656C197.869 28.9973 199.107 29.424 200.131 29.936C201.155 30.448 201.923 30.9813 202.435 31.536V35.824C201.411 35.056 200.216 34.48 198.851 34.096C197.528 33.6693 196.12 33.456 194.627 33.456C193.475 33.456 192.557 33.584 191.875 33.84C191.192 34.096 190.68 34.48 190.339 34.992C189.997 35.4613 189.827 36.0587 189.827 36.784ZM185.539 25.584L182.275 19.12C183.939 18.3093 185.944 17.5413 188.291 16.816C190.637 16.0907 193.197 15.728 195.971 15.728C198.573 15.728 200.899 16.112 202.947 16.88C204.995 17.6053 206.616 18.672 207.811 20.08C209.005 21.488 209.603 23.216 209.603 25.264V46H200.323V27.44C200.323 26.7147 200.195 26.096 199.939 25.584C199.725 25.0293 199.384 24.56 198.915 24.176C198.445 23.792 197.848 23.5147 197.123 23.344C196.44 23.1733 195.651 23.088 194.755 23.088C193.432 23.088 192.131 23.2373 190.851 23.536C189.613 23.8347 188.525 24.1973 187.587 24.624C186.648 25.008 185.965 25.328 185.539 25.584Z" fill="#107D3C" fill-opacity="0.78"/>
</svg>
